<svg xmlns="http://www.w3.org/2000/svg" viewBox="0 0 576 512">
  <path d="M64 32C28.7 32 0 60.7 0 96V416c0 35.3 28.7 64 64 64H512c35.3 0 64-28.7 64-64V96c0-35.3-28.7-64-64-64H64zm80 192a48 48 0 1 1 96 0 48 48 0 1 1 -96 0zm-32 80c0-17.7 14.3-32 32-32h96c17.7 0 32 14.3 32 32v16c0 17.7-14.3 32-32 32H144c-17.7 0-32-14.3-32-32V304zM512 304c0 8.8-7.2 16-16 16H304c-8.8 0-16-7.2-16-16s7.2-16 16-16H496c8.8 0 16 7.2 16 16zm0-64c0 8.8-7.2 16-16 16H304c-8.8 0-16-7.2-16-16s7.2-16 16-16H496c8.8 0 16 7.2 16 16zm0-64c0 8.8-7.2 16-16 16H304c-8.8 0-16-7.2-16-16s7.2-16 16-16H496c8.8 0 16 7.2 16 16z"/>
</svg>
