<svg xmlns="http://www.w3.org/2000/svg" viewBox="0 0 448 512">
  <path d="M128 0c17.7 0 32 14.3 32 32V64H288V32c0-17.7 14.3-32 32-32s32 14.3 32 32V64h32c35.3 0 64 28.7 64 64v48c0 35.3-28.7 64-64 64H64c-35.3 0-64-28.7-64-64V128C0 92.7 28.7 64 64 64H96V32c0-17.7 14.3-32 32-32zM416 192c0-17.7-14.3-32-32-32H64c-17.7 0-32 14.3-32 32V448c0 17.7 14.3 32 32 32H384c17.7 0 32-14.3 32-32V192zM144 256c-8.8 0-16 7.2-16 16v64c0 8.8 7.2 16 16 16h32c8.8 0 16-7.2 16-16V272c0-8.8-7.2-16-16-16H144zm80-16c0-8.8 7.2-16 16-16h32c8.8 0 16 7.2 16 16v64c0 8.8-7.2 16-16 16H240c-8.8 0-16-7.2-16-16V240zm80 16c-8.8 0-16 7.2-16 16v64c0 8.8 7.2 16 16 16h32c8.8 0 16-7.2 16-16V272c0-8.8-7.2-16-16-16H304zM144 320c-8.8 0-16 7.2-16 16v64c0 8.8 7.2 16 16 16h32c8.8 0 16-7.2 16-16V336c0-8.8-7.2-16-16-16H144zm80-16c0-8.8 7.2-16 16-16h32c8.8 0 16 7.2 16 16v64c0 8.8-7.2 16-16 16H240c-8.8 0-16-7.2-16-16V304zm80 16c-8.8 0-16 7.2-16 16v64c0 8.8 7.2 16 16 16h32c8.8 0 16-7.2 16-16V336c0-8.8-7.2-16-16-16H304z"/>
</svg>
