<svg xmlns="http://www.w3.org/2000/svg" viewBox="0 0 448 512"><!--!Font Awesome Free 6.5.1 by @fontawesome - https://fontawesome.com License - https://fontawesome.com/license/free Copyright 2023 Fonticons, Inc.--><path d="M400 0H48C21.5 0 0 21.5 0 48v416c0 26.5 21.5 48 48 48h352c26.5 0 48-21.5 48-48V48c0-26.5-21.5-48-48-48zM277.3 415.7c-8.4 1.5-11.5-3.7-11.5-8 0-5.4.2-33 .2-55.3 0-15.6-5.2-25.5-11.3-30.7 37-4.1 76-9.2 76-73.1 0-18.2-6.5-27.3-17.1-39 1.7-4.3 7.4-22-1.7-45-13.9-4.3-45.7 17.9-45.7 17.9-13.2-3.7-27.5-5.6-41.6-5.6-14.1 0-28.4 1.9-41.6 5.6 0 0-31.8-22.2-45.7-17.9-9.1 22.9-3.5 40.6-1.7 45-10.6 11.7-15.6 20.8-15.6 39 0 63.6 37.3 69 74.3 73.1-5.2 4.6-9.9 12.6-11.5 24-10.3 4.7-36.4 12.6-52.4-15.2-9.9-16.5-27.7-18-27.7-18-17.6-.2-1.2 11-1.2 11 11.8 5.6 20.1 26.9 20.1 26.9 10.5 32.2 61.2 21.4 61.2 21.4 0 15.1.2 29.3.2 33.5 0 4.3-3 9.5-11.5 8-66-22.1-112.2-84.9-112.2-158.3 0-91.8 70.2-161.5 162-161.5S388 165.6 388 257.4c.1 73.4-44.7 136.3-110.7 158.3zm-98.1-61.1c-1.9.4-3.7-.4-3.9-1.7-.2-1.5 1.1-2.8 3-3.2 1.9-.2 3.7.6 3.9 1.9.3 1.3-1 2.6-3 3zm-9.5-.9c0-1.3 1.5-2.4 3.5-2.4 2.2.2 3.7 1.3 3.7 2.4 0 1.3-1.5 2.4-3.5 2.4-1.9 0-3.7-1.1-3.7-2.4zm-13.7-1.1c-.4-1.3 1.1-2.8 3-3.2 1.9-.4 3.7.4 4.1 1.7.4 1.5-1.1 2.8-3 3.2-1.9.2-3.7-.4-4.1-1.7zm-12.3-5.4c-.9-1.1-.2-2.8 1.5-3.7 1.7-.9 3.7-.2 4.5 1.1.9 1.1.2 2.8-1.5 3.7-1.6.6-3.6 0-4.5-1.1zm-9.1-9.1c-.9-.6-.9-2.4 0-3.9 .9-1.3 2.6-1.9 3.7-1.1 1.1.9 1.1 2.6 0 3.9-1 1.5-2.6 2.1-3.7 1.1zm-6.5-9.7c-.9-.9-.4-2.2 1.1-3 1.3-.9 2.8-.4 3.5.6 .9.9 .4 2.2-1.1 3-1.3.9-2.8.4-3.5-.6zm-6.7-7.4c-.4-.9 .4-1.9 1.9-2.2 1.3-.4 2.6 0 2.8 .9 .4 .9-.4 1.9-1.9 2.2-1.3.5-2.6 0-2.8-.9z"/></svg>