<svg xmlns="http://www.w3.org/2000/svg" viewBox="0 0 640 512">
  <path d="M0 80C0 53.5 21.5 32 48 32h96c26.5 0 48 21.5 48 48v96c0 26.5-21.5 48-48 48H48c-26.5 0-48-21.5-48-48V80zM64 96v64h64V96H64zM0 336c0-26.5 21.5-48 48-48h96c26.5 0 48 21.5 48 48v96c0 26.5-21.5 48-48 48H48c-26.5 0-48-21.5-48-48V336zm64 16v64h64V352H64zM304 32h96c26.5 0 48 21.5 48 48v96c0 26.5-21.5 48-48 48H304c-26.5 0-48-21.5-48-48V80c0-26.5 21.5-48 48-48zm80 64H320v64h64V96zM256 304c0-8.8 7.2-16 16-16h64c8.8 0 16 7.2 16 16s7.2 16 16 16h32c8.8 0 16-7.2 16-16s7.2-16 16-16s16 7.2 16 16v96c0 8.8-7.2 16-16 16H384c-8.8 0-16-7.2-16-16V352c0-8.8-7.2-16-16-16s-16 7.2-16 16v48c0 8.8-7.2 16-16 16H272c-8.8 0-16-7.2-16-16V304zM576 80c0 26.5-21.5 48-48 48H432V96h96V80c0-26.5 21.5-48 48-48s48 21.5 48 48z"/>
</svg>
